# xmcd CD database file generated by Grip 2.94
# 
# Track frame offsets:
#       150
#       24166
#       36193
#       49489
#       71495
#       92118
#       104180
#       129157
#       150170
#       173248
#       190757
#       205231
#       225547
# 
# Disc length: 3241 seconds
# 
# Revision: 3
# Processed by: cddbd v1.4b41PL1 Copyright (c) Steve Scherf et al.
# Submitted via: Grip 2.94
# 
DISCID=a60ca70d
DTITLE=Jesse and the Raindogs - House Broken
DYEAR=1900
DGENRE=
TTITLE0=I'd Give It to You
TTITLE1=Whole Lotta Nothin'
TTITLE2=Gimme Today
TTITLE3=The Way I Feel About You
TTITLE4=Party, Party
TTITLE5=My Best Friend (Became My Worst Enemy)
TTITLE6=Pussycat Moan
TTITLE7=Bus Driver
TTITLE8=Ready for the Blues
TTITLE9=Talk to the Hand
TTITLE10=The Next Time
TTITLE11=I Don't Deserve This
TTITLE12=Soul Child
EXTD=
EXTT0=
EXTT1=
EXTT2=
EXTT3=
EXTT4=
EXTT5=
EXTT6=
EXTT7=
EXTT8=
EXTT9=
EXTT10=
EXTT11=
EXTT12=
PLAYORDER=
